<?xml version="1.0" encoding="UTF-8"?>
<svg width="38px" height="38px" viewBox="0 0 38 38" version="1.1" xmlns="http://www.w3.org/2000/svg" xmlns:xlink="http://www.w3.org/1999/xlink">
    <!-- Generator: Sketch 44.1 (41455) - http://www.bohemiancoding.com/sketch -->
    <title>Shape</title>
    <desc>Created with Sketch.</desc>
    <defs></defs>
    <g id="Page-1" stroke="none" stroke-width="1" fill="none" fill-rule="evenodd">
        <path d="M4.58035714,24.7890625 L17.3671875,33.3136161 L17.3671875,25.7008929 L10.2845982,20.9720982 L4.58035714,24.7890625 Z M3.265625,21.7354911 L7.35825893,19 L3.265625,16.2645089 L3.265625,21.7354911 Z M20.6328125,33.3136161 L33.4196429,24.7890625 L27.7154018,20.9720982 L20.6328125,25.7008929 L20.6328125,33.3136161 Z M19,22.859375 L24.7678571,19 L19,15.140625 L13.2321429,19 L19,22.859375 Z M10.2845982,17.0279018 L17.3671875,12.2991071 L17.3671875,4.68638393 L4.58035714,13.2109375 L10.2845982,17.0279018 Z M30.6417411,19 L34.734375,21.7354911 L34.734375,16.2645089 L30.6417411,19 Z M27.7154018,17.0279018 L33.4196429,13.2109375 L20.6328125,4.68638393 L20.6328125,12.2991071 L27.7154018,17.0279018 Z M38,13.2109375 L38,24.7890625 C38,25.3686756 37.7596726,25.8210565 37.2790179,26.1462054 L19.9118304,37.7243304 C19.6149554,37.9081101 19.3110119,38 19,38 C18.6889881,38 18.3850446,37.9081101 18.0881696,37.7243304 L0.720982143,26.1462054 C0.240327381,25.8210565 0,25.3686756 0,24.7890625 L0,13.2109375 C0,12.6313244 0.240327381,12.1789435 0.720982143,11.8537946 L18.0881696,0.275669643 C18.3850446,0.091889881 18.6889881,0 19,0 C19.3110119,0 19.6149554,0.091889881 19.9118304,0.275669643 L37.2790179,11.8537946 C37.7596726,12.1789435 38,12.6313244 38,13.2109375 Z" id="Shape" fill="#000000" fill-rule="nonzero"></path>
    </g>
</svg>