<?xml version="1.0" encoding="UTF-8"?>
<svg width="39px" height="38px" viewBox="0 0 39 38" version="1.1" xmlns="http://www.w3.org/2000/svg" xmlns:xlink="http://www.w3.org/1999/xlink">
    <!-- Generator: Sketch 44.1 (41455) - http://www.bohemiancoding.com/sketch -->
    <title>Shape</title>
    <desc>Created with Sketch.</desc>
    <defs></defs>
    <g id="Page-1" stroke="none" stroke-width="1" fill="none" fill-rule="evenodd">
        <path d="M19.4900017,0 C23.0277621,0 26.2904574,0.871744792 29.2780876,2.61523438 C32.2657178,4.35872396 34.6312777,6.72428385 36.3747673,9.71191406 C38.1182569,12.6995443 38.9900017,15.9622396 38.9900017,19.5 C38.9900017,23.7486979 37.7500928,27.569987 35.2702751,30.9638672 C32.7904574,34.3577474 29.5870069,36.7063802 25.6599236,38.0097656 C25.2028923,38.094401 24.8643506,38.0351563 24.6442986,37.8320313 C24.4242465,37.6289063 24.3142204,37.375 24.3142204,37.0703125 C24.3142204,37.0195313 24.3184522,36.3720703 24.3269157,35.1279297 C24.3353793,33.8837891 24.3396111,32.7454427 24.3396111,31.7128906 C24.3396111,30.0709635 23.8995069,28.8691406 23.0192986,28.1074219 C23.9841423,28.0058594 24.8516553,27.8535156 25.6218376,27.6503906 C26.3920199,27.4472656 27.1875928,27.1171875 28.0085564,26.6601563 C28.8295199,26.203125 29.5150668,25.6402995 30.065197,24.9716797 C30.6153272,24.3030599 31.0638949,23.414388 31.4109001,22.3056641 C31.7579053,21.1969401 31.9314079,19.9231771 31.9314079,18.484375 C31.9314079,16.4700521 31.2627881,14.7265625 29.9255486,13.2539063 C30.5518506,11.7135417 30.4841423,9.98697917 29.7224236,8.07421875 C29.2484652,7.921875 28.5629183,8.01497396 27.6657829,8.35351563 C26.7686475,8.69205729 25.9900017,9.06445313 25.3298454,9.47070313 L24.3650017,10.0800781 C22.7907829,9.63997396 21.1657829,9.41992188 19.4900017,9.41992188 C17.8142204,9.41992188 16.1892204,9.63997396 14.6150017,10.0800781 C14.3441683,9.89388021 13.9844678,9.66536458 13.5359001,9.39453125 C13.0873324,9.12369792 12.3806267,8.79785156 11.4157829,8.41699219 C10.4509392,8.03613281 9.73153814,7.921875 9.2575798,8.07421875 C8.49586105,9.98697917 8.42815272,11.7135417 9.0544548,13.2539063 C7.71721522,14.7265625 7.04859543,16.4700521 7.04859543,18.484375 C7.04859543,19.9231771 7.22209803,21.1927083 7.56910324,22.2929688 C7.91610845,23.3932292 8.36044439,24.281901 8.90211105,24.9589844 C9.44377772,25.6360677 10.1250928,26.203125 10.9460564,26.6601563 C11.7670199,27.1171875 12.5625928,27.4472656 13.3327751,27.6503906 C14.1029574,27.8535156 14.9704704,28.0058594 15.9353142,28.1074219 C15.2751579,28.7167969 14.8604444,29.5885417 14.6911736,30.7226563 C14.3357048,30.8919271 13.9548454,31.0188802 13.5485954,31.1035156 C13.1423454,31.188151 12.6599236,31.2304688 12.1013298,31.2304688 C11.5427361,31.2304688 10.9883741,31.0485026 10.4382439,30.6845703 C9.88811366,30.320638 9.4183871,29.7916667 9.02906418,29.0976563 C8.7074496,28.5559896 8.29696782,28.1158854 7.79761887,27.7773438 C7.29826991,27.4388021 6.8793246,27.2356771 6.54078293,27.1679688 L6.03297043,27.0917969 C5.67750168,27.0917969 5.43205897,27.1298828 5.2966423,27.2060547 C5.16122564,27.2822266 5.11890793,27.3795573 5.16968918,27.4980469 C5.22047043,27.6165365 5.2966423,27.735026 5.3982048,27.8535156 C5.4997673,27.9720052 5.60979335,28.0735677 5.72828293,28.1582031 L5.9060173,28.2851563 C6.27841314,28.4544271 6.6465772,28.7760417 7.01050949,29.25 C7.37444178,29.7239583 7.64104335,30.155599 7.81031418,30.5449219 L8.06422043,31.1289063 C8.28427251,31.7721354 8.65666835,32.2926432 9.18140793,32.6904297 C9.70614751,33.0882161 10.2732048,33.3421224 10.8825798,33.4521484 C11.4919548,33.5621745 12.0801709,33.6214193 12.6472282,33.6298828 C13.2142855,33.6383464 13.6840121,33.608724 14.0564079,33.5410156 L14.6403923,33.4394531 C14.6403923,34.0826823 14.6446241,34.8317057 14.6530876,35.6865234 C14.6615512,36.5413411 14.6657829,37.0026042 14.6657829,37.0703125 C14.6657829,37.375 14.5557569,37.6289063 14.3357048,37.8320313 C14.1156527,38.0351563 13.7771111,38.094401 13.3200798,38.0097656 C9.39299647,36.7063802 6.18954595,34.3577474 3.70972824,30.9638672 C1.22991053,27.569987 -0.00999832153,23.7486979 -0.00999832153,19.5 C-0.00999832153,15.9622396 0.86174647,12.6995443 2.60523605,9.71191406 C4.34872564,6.72428385 6.71428553,4.35872396 9.70191574,2.61523438 C12.6895459,0.871744792 15.9522413,0 19.4900017,0 Z M7.37867355,28.0058594 C7.4294548,27.8873698 7.37021001,27.7858073 7.20093918,27.7011719 C7.03166835,27.6503906 6.9216423,27.6673177 6.87086105,27.7519531 C6.8200798,27.8704427 6.8793246,27.9720052 7.04859543,28.0566406 C7.20093918,28.1582031 7.31096522,28.141276 7.37867355,28.0058594 Z M8.16578293,28.8691406 C8.28427251,28.7845052 8.26734543,28.6490885 8.11500168,28.4628906 C7.94573085,28.3105469 7.81031418,28.2851563 7.70875168,28.3867188 C7.5902621,28.4713542 7.60718918,28.6067708 7.75953293,28.7929688 C7.92880376,28.9622396 8.06422043,28.9876302 8.16578293,28.8691406 Z M8.92750168,30.0117188 C9.07984543,29.8932292 9.07984543,29.7324219 8.92750168,29.5292969 C8.79208501,29.3092448 8.6482048,29.2584635 8.49586105,29.3769531 C8.3435173,29.4615885 8.3435173,29.6139323 8.49586105,29.8339844 C8.6482048,30.0540365 8.79208501,30.1132812 8.92750168,30.0117188 Z M9.99390793,31.078125 C10.1293246,30.9427083 10.0954704,30.781901 9.89234543,30.5957031 C9.68922043,30.3925781 9.5199496,30.3671875 9.38453293,30.5195313 C9.23218918,30.6549479 9.26604335,30.8157552 9.48609543,31.0019531 C9.68922043,31.2050781 9.85849126,31.2304688 9.99390793,31.078125 Z M11.4411736,31.7128906 C11.4919548,31.5266927 11.3819288,31.391276 11.1110954,31.3066406 C10.8571892,31.2389323 10.6963819,31.2981771 10.6286736,31.484375 C10.5609652,31.6705729 10.6709913,31.797526 10.9587517,31.8652344 C11.2126579,31.9667969 11.3734652,31.9160156 11.4411736,31.7128906 Z M13.0407829,31.8398438 C13.0407829,31.6197917 12.8969027,31.5266927 12.6091423,31.5605469 C12.338309,31.5605469 12.2028923,31.6536458 12.2028923,31.8398438 C12.2028923,32.0598958 12.3467725,32.1529948 12.6345329,32.1191406 C12.9053663,32.1191406 13.0407829,32.0260417 13.0407829,31.8398438 Z M14.5134392,31.5859375 C14.479585,31.3997396 14.3272413,31.3235677 14.0564079,31.3574219 C13.7855746,31.4082031 13.667085,31.5351563 13.7009392,31.7382813 C13.7347933,31.9414063 13.8871371,32.0091146 14.1579704,31.9414063 C14.4288038,31.8736979 14.5472933,31.7552083 14.5134392,31.5859375 Z" id="Shape" fill="#000000" fill-rule="nonzero"></path>
    </g>
</svg>