<?xml version="1.0" encoding="UTF-8"?>
<svg width="61px" height="39px" viewBox="0 0 61 39" version="1.1" xmlns="http://www.w3.org/2000/svg" xmlns:xlink="http://www.w3.org/1999/xlink">
    <!-- Generator: Sketch 44.1 (41455) - http://www.bohemiancoding.com/sketch -->
    <title>Shape</title>
    <desc>Created with Sketch.</desc>
    <defs></defs>
    <g id="Page-1" stroke="none" stroke-width="1" fill="none" fill-rule="evenodd">
        <path d="M37.4281109,19.5345047 C37.4281109,23.1462175 36.6727768,26.3628993 35.1621084,29.18455 C33.65144,32.0062006 31.4983035,34.2114292 28.7026988,35.8002355 C25.9070942,37.3890419 22.7034354,38.1834451 19.0917226,38.1834451 C16.5044859,38.1834451 14.0301153,37.679889 11.6686108,36.6727768 C9.30710622,35.6656645 7.27551774,34.3112722 5.57384533,32.6095998 C3.87217292,30.9079274 2.5177806,28.8763389 1.51066836,26.5148343 C0.50355612,24.1533298 0,21.6789592 0,19.0917226 C0,16.5044859 0.50355612,14.0301153 1.51066836,11.6686108 C2.5177806,9.30710622 3.87217292,7.27551774 5.57384533,5.57384533 C7.27551774,3.87217292 9.30710622,2.5177806 11.6686108,1.51066836 C14.0301153,0.50355612 16.5044859,0 19.0917226,0 C24.0578277,0 28.3206908,1.6669444 31.8803116,5.00083319 L26.6971564,9.97562038 C24.6655679,8.01348791 22.1304233,7.03242168 19.0917226,7.03242168 C16.95595,7.03242168 14.9807946,7.57070581 13.1662561,8.64727406 C11.3517177,9.72384232 9.91484637,11.1867597 8.85564211,13.0360261 C7.79643786,14.8852926 7.26683573,16.903858 7.26683573,19.0917226 C7.26683573,21.2795871 7.79643786,23.2981526 8.85564211,25.147419 C9.91484637,26.9966854 11.3517177,28.4596028 13.1662561,29.536171 C14.9807946,30.6127393 16.95595,31.1510234 19.0917226,31.1510234 C20.5329349,31.1510234 21.8569402,30.9513374 23.0637385,30.5519653 C24.2705368,30.1525932 25.264626,29.6533781 26.0460062,29.0543199 C26.8273864,28.4552618 27.5089236,27.7737246 28.0906177,27.0097084 C28.6723118,26.2456923 29.0977299,25.5250861 29.366872,24.8478899 C29.6360141,24.1706938 29.8226771,23.5282256 29.9268611,22.9204855 L19.0917226,22.9204855 L19.0917226,16.3568919 L37.1155589,16.3568919 C37.3239269,17.4508242 37.4281109,18.5100284 37.4281109,19.5345047 Z M60.0099983,16.3568919 L60.0099983,21.8265532 L54.566383,21.8265532 L54.566383,27.2701685 L49.0967217,27.2701685 L49.0967217,21.8265532 L43.6531064,21.8265532 L43.6531064,16.3568919 L49.0967217,16.3568919 L49.0967217,10.9132766 L54.566383,10.9132766 L54.566383,16.3568919 L60.0099983,16.3568919 Z" id="Shape" fill="#000000" fill-rule="nonzero"></path>
    </g>
</svg>