<?xml version="1.0" encoding="UTF-8"?>
<svg width="39px" height="38px" viewBox="0 0 39 38" version="1.1" xmlns="http://www.w3.org/2000/svg" xmlns:xlink="http://www.w3.org/1999/xlink">
    <!-- Generator: Sketch 44.1 (41455) - http://www.bohemiancoding.com/sketch -->
    <title>Shape</title>
    <desc>Created with Sketch.</desc>
    <defs></defs>
    <g id="Page-1" stroke="none" stroke-width="1" fill="none" fill-rule="evenodd">
        <path d="M12.2169671,8.02640264 C12.2169671,7.14015402 11.9034357,6.38349835 11.276373,5.75643564 C10.6493103,5.12937294 9.89265462,4.81584158 9.006406,4.81584158 C8.12015737,4.81584158 7.36350171,5.12937294 6.736439,5.75643564 C6.10937629,6.38349835 5.79584494,7.14015402 5.79584494,8.02640264 C5.79584494,8.91265127 6.10937629,9.66930693 6.736439,10.2963696 C7.36350171,10.9234323 8.12015737,11.2369637 9.006406,11.2369637 C9.89265462,11.2369637 10.6493103,10.9234323 11.276373,10.2963696 C11.9034357,9.66930693 12.2169671,8.91265127 12.2169671,8.02640264 Z M38.9800034,22.4739274 C38.9800034,23.360176 38.6706524,24.1126513 38.0519506,24.7313531 L25.736439,37.0719472 C25.0842938,37.6906491 24.3234577,38 23.4539307,38 C22.5676821,38 21.8152069,37.6906491 21.196505,37.0719472 L3.26251161,19.1128713 C2.62708807,18.4941694 2.08781414,17.649725 1.64468983,16.579538 C1.20156551,15.5093509 0.980003357,14.5311331 0.980003357,13.6448845 L0.980003357,3.21056106 C0.980003357,2.3410341 1.29771513,1.58855886 1.93313867,0.953135314 C2.56856221,0.317711771 3.32103746,0 4.19056441,0 L14.6248878,0 C15.5111365,0 16.4893543,0.221562156 17.5595413,0.664686469 C18.6297283,1.10781078 19.4825336,1.64708471 20.1179572,2.28250825 L38.0519506,20.1914191 C38.6706524,20.8435644 38.9800034,21.6044004 38.9800034,22.4739274 Z" id="Shape" fill="#000000" fill-rule="nonzero"></path>
    </g>
</svg>