<?xml version="1.0" encoding="UTF-8"?>
<svg width="40px" height="39px" viewBox="0 0 40 39" version="1.1" xmlns="http://www.w3.org/2000/svg" xmlns:xlink="http://www.w3.org/1999/xlink">
    <!-- Generator: Sketch 44.1 (41455) - http://www.bohemiancoding.com/sketch -->
    <title>Shape</title>
    <desc>Created with Sketch.</desc>
    <defs></defs>
    <g id="Page-1" stroke="none" stroke-width="1" fill="none" fill-rule="evenodd">
        <path d="M9.08854167,12.421875 L9.08854167,38.2291667 L0.494791667,38.2291667 L0.494791667,12.421875 L9.08854167,12.421875 Z M9.63541667,4.453125 C9.65277778,5.72048611 9.21440972,6.77951389 8.3203125,7.63020833 C7.42621528,8.48090278 6.25,8.90625 4.79166667,8.90625 L4.73958333,8.90625 C3.31597222,8.90625 2.17013889,8.48090278 1.30208333,7.63020833 C0.434027778,6.77951389 0,5.72048611 0,4.453125 C0,3.16840278 0.447048611,2.10503472 1.34114583,1.26302083 C2.23524306,0.421006944 3.40277778,0 4.84375,0 C6.28472222,0 7.43923611,0.421006944 8.30729167,1.26302083 C9.17534722,2.10503472 9.61805556,3.16840278 9.63541667,4.453125 Z M40,23.4375 L40,38.2291667 L31.4322917,38.2291667 L31.4322917,24.4270833 C31.4322917,22.6041667 31.0807292,21.1762153 30.3776042,20.1432292 C29.6744792,19.1102431 28.5763889,18.59375 27.0833333,18.59375 C25.9895833,18.59375 25.0737847,18.8932292 24.3359375,19.4921875 C23.5980903,20.0911458 23.046875,20.8333333 22.6822917,21.71875 C22.4913194,22.2395833 22.3958333,22.9427083 22.3958333,23.828125 L22.3958333,38.2291667 L13.828125,38.2291667 C13.8628472,31.3020833 13.8802083,25.6857639 13.8802083,21.3802083 C13.8802083,17.0746528 13.8715278,14.5052083 13.8541667,13.671875 L13.828125,12.421875 L22.3958333,12.421875 L22.3958333,16.171875 L22.34375,16.171875 C22.6909722,15.6163194 23.046875,15.1302083 23.4114583,14.7135417 C23.7760417,14.296875 24.2664931,13.8454861 24.8828125,13.359375 C25.4991319,12.8732639 26.2543403,12.4956597 27.1484375,12.2265625 C28.0425347,11.9574653 29.0364583,11.8229167 30.1302083,11.8229167 C33.0989583,11.8229167 35.4861111,12.8081597 37.2916667,14.7786458 C39.0972222,16.7491319 40,19.6354167 40,23.4375 Z" id="Shape" fill="#000000" fill-rule="nonzero"></path>
    </g>
</svg>