<?xml version="1.0" encoding="UTF-8"?>
<svg width="47px" height="39px" viewBox="0 0 47 39" version="1.1" xmlns="http://www.w3.org/2000/svg" xmlns:xlink="http://www.w3.org/1999/xlink">
    <!-- Generator: Sketch 44.1 (41455) - http://www.bohemiancoding.com/sketch -->
    <title>Shape</title>
    <desc>Created with Sketch.</desc>
    <defs></defs>
    <g id="Page-1" stroke="none" stroke-width="1" fill="none" fill-rule="evenodd">
        <path d="M47,4.53299492 C45.6679357,6.48138748 44.0575296,8.14149746 42.1687817,9.51332487 C42.1886633,9.79166667 42.1986041,10.2091794 42.1986041,10.7658629 C42.1986041,13.3504653 41.8208545,15.9300973 41.0653553,18.5047589 C40.3098562,21.0794205 39.1616963,23.5497039 37.6208756,25.9156091 C36.080055,28.2815144 34.2459814,30.3740482 32.1186548,32.1932107 C29.9913283,34.0123731 27.4266074,35.4637267 24.4244924,36.5472716 C21.4223773,37.6308164 18.2115059,38.1725888 14.7918782,38.1725888 C9.40397631,38.1725888 4.47335025,36.731176 0,33.8483503 C0.695854484,33.9278765 1.47123519,33.9676396 2.32614213,33.9676396 C6.79949239,33.9676396 10.7857445,32.5958122 14.2848985,29.8521574 C12.197335,29.8123942 10.3284687,29.171214 8.67829949,27.9286168 C7.02813029,26.6860195 5.89488156,25.1004653 5.2785533,23.1719543 C5.93464467,23.2713621 6.54103215,23.321066 7.09771574,23.321066 C7.95262267,23.321066 8.79758883,23.2117174 9.63261421,22.9930203 C7.40587986,22.5357445 5.56186548,21.4273477 4.10057107,19.6678299 C2.63927665,17.9083122 1.90862944,15.8654822 1.90862944,13.5393401 L1.90862944,13.4200508 C3.2605753,14.1755499 4.71192893,14.5831218 6.26269036,14.6427665 C4.95050761,13.767978 3.90672589,12.6247885 3.13134518,11.213198 C2.35596447,9.80160745 1.96827411,8.27072758 1.96827411,6.62055838 C1.96827411,4.87098139 2.40566836,3.25063452 3.28045685,1.75951777 C5.68612521,4.72186971 8.61368443,7.09274535 12.0631345,8.87214467 C15.5125846,10.651544 19.2055838,11.6406514 23.142132,11.839467 C22.9830795,11.0839679 22.9035533,10.3483503 22.9035533,9.63261421 C22.9035533,6.96848562 23.8429569,4.69701777 25.721764,2.81821066 C27.6005711,0.939403553 29.8720389,0 32.5361675,0 C35.3195854,0 37.6656091,1.01395939 39.5742386,3.04187817 C41.7413283,2.62436548 43.7791878,1.84898477 45.6878173,0.715736041 C44.9521997,3.00211506 43.5406091,4.7715736 41.4530457,6.02411168 C43.3020305,5.82529611 45.1510152,5.32825719 47,4.53299492 Z" id="Shape" fill="#000000" fill-rule="nonzero"></path>
    </g>
</svg>